<svg width="24" height="24" viewBox="0 0 24 24" fill="none" xmlns="http://www.w3.org/2000/svg">
<path d="M5.375 21.0004C4.99167 21.0004 4.66667 20.8671 4.4 20.6004C4.13333 20.3337 4 20.0087 4 19.6254V6.15039C4 5.76706 4.13333 5.44206 4.4 5.17539C4.66667 4.90872 4.99167 4.77539 5.375 4.77539H7.45V2.77539H8.35V4.77539H15.725V2.77539H16.575V4.77539H18.625C19.0083 4.77539 19.3333 4.90872 19.6 5.17539C19.8667 5.44206 20 5.76706 20 6.15039V19.6254C20 20.0087 19.8667 20.3337 19.6 20.6004C19.3333 20.8671 19.0083 21.0004 18.625 21.0004H5.375ZM5.375 20.2254H18.625C18.775 20.2254 18.9125 20.1629 19.0375 20.0379C19.1625 19.9129 19.225 19.7754 19.225 19.6254V10.5004H4.775V19.6254C4.775 19.7754 4.8375 19.9129 4.9625 20.0379C5.0875 20.1629 5.225 20.2254 5.375 20.2254ZM4.775 9.72539H19.225V6.15039C19.225 6.00039 19.1625 5.86289 19.0375 5.73789C18.9125 5.61289 18.775 5.55039 18.625 5.55039H5.375C5.225 5.55039 5.0875 5.61289 4.9625 5.73789C4.8375 5.86289 4.775 6.00039 4.775 6.15039V9.72539ZM12 14.1504C11.8 14.1504 11.6208 14.0754 11.4625 13.9254C11.3042 13.7754 11.225 13.5921 11.225 13.3754C11.225 13.1754 11.3042 13.0004 11.4625 12.8504C11.6208 12.7004 11.8 12.6254 12 12.6254C12.2 12.6254 12.3792 12.7004 12.5375 12.8504C12.6958 13.0004 12.775 13.1754 12.775 13.3754C12.775 13.5921 12.6958 13.7754 12.5375 13.9254C12.3792 14.0754 12.2 14.1504 12 14.1504ZM8 14.1504C7.8 14.1504 7.62083 14.0754 7.4625 13.9254C7.30417 13.7754 7.225 13.5921 7.225 13.3754C7.225 13.1754 7.30417 13.0004 7.4625 12.8504C7.62083 12.7004 7.8 12.6254 8 12.6254C8.2 12.6254 8.37917 12.7004 8.5375 12.8504C8.69583 13.0004 8.775 13.1754 8.775 13.3754C8.775 13.5921 8.69583 13.7754 8.5375 13.9254C8.37917 14.0754 8.2 14.1504 8 14.1504ZM16 14.1504C15.8 14.1504 15.6208 14.0754 15.4625 13.9254C15.3042 13.7754 15.225 13.5921 15.225 13.3754C15.225 13.1754 15.3042 13.0004 15.4625 12.8504C15.6208 12.7004 15.8 12.6254 16 12.6254C16.2 12.6254 16.3792 12.7004 16.5375 12.8504C16.6958 13.0004 16.775 13.1754 16.775 13.3754C16.775 13.5921 16.6958 13.7754 16.5375 13.9254C16.3792 14.0754 16.2 14.1504 16 14.1504ZM12 18.0004C11.8 18.0004 11.6208 17.9254 11.4625 17.7754C11.3042 17.6254 11.225 17.4421 11.225 17.2254C11.225 17.0254 11.3042 16.8462 11.4625 16.6879C11.6208 16.5296 11.8 16.4504 12 16.4504C12.2 16.4504 12.3792 16.5296 12.5375 16.6879C12.6958 16.8462 12.775 17.0254 12.775 17.2254C12.775 17.4421 12.6958 17.6254 12.5375 17.7754C12.3792 17.9254 12.2 18.0004 12 18.0004ZM8 18.0004C7.8 18.0004 7.62083 17.9254 7.4625 17.7754C7.30417 17.6254 7.225 17.4421 7.225 17.2254C7.225 17.0254 7.30417 16.8462 7.4625 16.6879C7.62083 16.5296 7.8 16.4504 8 16.4504C8.2 16.4504 8.37917 16.5296 8.5375 16.6879C8.69583 16.8462 8.775 17.0254 8.775 17.2254C8.775 17.4421 8.69583 17.6254 8.5375 17.7754C8.37917 17.9254 8.2 18.0004 8 18.0004ZM16 18.0004C15.8 18.0004 15.6208 17.9254 15.4625 17.7754C15.3042 17.6254 15.225 17.4421 15.225 17.2254C15.225 17.0254 15.3042 16.8462 15.4625 16.6879C15.6208 16.5296 15.8 16.4504 16 16.4504C16.2 16.4504 16.3792 16.5296 16.5375 16.6879C16.6958 16.8462 16.775 17.0254 16.775 17.2254C16.775 17.4421 16.6958 17.6254 16.5375 17.7754C16.3792 17.9254 16.2 18.0004 16 18.0004Z" fill="#5C6F82"/>
</svg>
