<svg width="32" height="32" viewBox="0 0 32 32" fill="none" xmlns="http://www.w3.org/2000/svg">
<path fill-rule="evenodd" clip-rule="evenodd" d="M8.66666 2.66699H19.6L25.3333 8.40033V27.3337C25.3333 28.4382 24.4379 29.3337 23.3333 29.3337H8.66666C7.56209 29.3337 6.66666 28.4382 6.66666 27.3337V4.66699C6.66666 3.56242 7.56209 2.66699 8.66666 2.66699ZM23.0667 8.00033L20 4.93366V7.33366C20 7.70185 20.2985 8.00033 20.6667 8.00033H23.0667ZM23.3333 28.0003H8.66666C8.29847 28.0003 7.99999 27.7018 7.99999 27.3337V4.66699C7.99999 4.2988 8.29847 4.00033 8.66666 4.00033H18.6667V7.33366C18.6667 8.43823 19.5621 9.33366 20.6667 9.33366H24V27.3337C24 27.7018 23.7015 28.0003 23.3333 28.0003ZM21.3333 12.0003H10.6667V13.3337H21.3333V12.0003ZM10.6667 14.667H21.3333V16.0003H10.6667V14.667ZM16 17.3337H10.6667V18.667H16V17.3337Z" fill="#0066CC"/>
</svg>
