<svg width="14" height="14" viewBox="0 0 14 14" fill="none" xmlns="http://www.w3.org/2000/svg">
<path fill-rule="evenodd" clip-rule="evenodd" d="M1.16666 7.00033C1.16666 3.77866 3.77833 1.16699 6.99999 1.16699C8.54709 1.16699 10.0308 1.78157 11.1248 2.87554C12.2187 3.9695 12.8333 5.45323 12.8333 7.00033C12.8333 10.222 10.2217 12.8337 6.99999 12.8337C3.77833 12.8337 1.16666 10.222 1.16666 7.00033ZM1.74999 7.00033C1.74999 9.89982 4.10049 12.2503 6.99999 12.2503C9.89948 12.2503 12.25 9.89982 12.25 7.00033C12.25 4.10083 9.89948 1.75033 6.99999 1.75033C4.10049 1.75033 1.74999 4.10083 1.74999 7.00033ZM6.59166 3.50033H7.46666V4.66699H6.59166V3.50033ZM7.46666 5.25033H6.59166V10.5003H7.46666V5.25033Z" fill="#0066CC"/>
</svg>
