<svg width="438" height="186" viewBox="0 0 438 186" fill="none" xmlns="http://www.w3.org/2000/svg">
<path d="M435 65.583C380.757 65.583 387.166 151.728 332.923 151.728C278.679 151.728 285.099 128.756 230.855 128.756C176.612 128.756 184.967 91.0162 130.724 91.0162C76.4806 91.0162 67.293 71.6287 13.0497 71.6287" stroke="#29A380" stroke-width="5.81515" stroke-linecap="round"/>
<path d="M435 65.5839C382 65.5839 375.23 125.475 322.231 125.475C269.231 125.475 278.017 173.06 225.018 173.06C172.018 173.06 173.031 105.784 120.032 105.784C67.0321 105.784 64.1535 71.8768 11.154 71.8768" stroke="#C03054" stroke-width="5.81515" stroke-linecap="round"/>
<line x1="7.6859" y1="-8.81764e-09" x2="7.68591" y2="186" stroke="#575F61" stroke-width="0.5"/>
<line x1="435" y1="179.799" y2="179.799" stroke="#575F61" stroke-width="0.5"/>
</svg>
