<svg width="24" height="24" viewBox="0 0 24 24" fill="none" xmlns="http://www.w3.org/2000/svg">
<path fill-rule="evenodd" clip-rule="evenodd" d="M18.4001 2.59965C19.1938 2.59965 19.9527 2.92493 20.5001 3.49965C21.0805 4.06442 21.4079 4.83984 21.4079 5.64965C21.4079 6.45946 21.0805 7.23488 20.5001 7.79965L8.8001 19.3997L3.6001 20.3997L4.6001 15.1997L16.2001 3.49965C16.7847 2.91925 17.5763 2.59542 18.4001 2.59965ZM15.5001 5.59965L14.8001 6.29965L17.7001 9.19965L18.4001 8.49965L15.5001 5.59965ZM14.1001 7.09965L15.2001 8.09965L6.8001 16.4997L5.7001 15.3997L14.1001 7.09965ZM5.1001 17.9997C5.33811 17.9911 5.56416 18.1041 5.7001 18.2997C5.89566 18.4356 6.00868 18.6616 6.0001 18.8997L7.5001 18.5997L5.4001 16.4997L5.1001 17.9997ZM8.6001 18.2996L7.5001 17.1996L15.9001 8.79965L16.9001 9.89965L8.6001 18.2996ZM19.1001 7.79965L19.8001 7.09965C20.5747 6.28816 20.5747 5.01114 19.8001 4.19965C19.4308 3.82282 18.9276 3.60716 18.4001 3.59965C17.8421 3.60218 17.3059 3.81666 16.9001 4.19965L16.2001 4.89965L19.1001 7.79965Z" fill="#5C6F82"/>
</svg>
