<svg width="25" height="24" viewBox="0 0 25 24" fill="none" xmlns="http://www.w3.org/2000/svg">
<path fill-rule="evenodd" clip-rule="evenodd" d="M20.1118 6H12.1118L10.1118 4H4.11182C3.00725 4 2.11182 4.89543 2.11182 6V18C2.11182 19.1046 3.00725 20 4.11182 20H20.1118C21.2164 20 22.1118 19.1046 22.1118 18V8C22.1118 6.89543 21.2164 6 20.1118 6ZM21.1118 18C21.1444 18.2739 21.0496 18.5476 20.8545 18.7427C20.6595 18.9377 20.3857 19.0326 20.1118 19H4.11182C3.8379 19.0326 3.56417 18.9377 3.36912 18.7427C3.17407 18.5476 3.07924 18.2739 3.11182 18V6C3.07924 5.72609 3.17407 5.45236 3.36912 5.2573C3.56417 5.06225 3.8379 4.96742 4.11182 5H9.71182L11.4118 6.7L11.7118 7H20.1118C20.3857 6.96742 20.6595 7.06225 20.8545 7.2573C21.0496 7.45236 21.1444 7.72609 21.1118 8V18ZM20.1118 9V8H4.11182V9H20.1118Z" fill="#5C6F82"/>
</svg>
