<svg width="16" height="16" viewBox="0 0 16 16" fill="none" xmlns="http://www.w3.org/2000/svg">
<path fill-rule="evenodd" clip-rule="evenodd" d="M13.6667 2.66667H11.3333V2H10.6667V2.66667H5.33334V2H4.66668V2.66667H2.33334C1.78106 2.66667 1.33334 3.11438 1.33334 3.66667V12.3333C1.33334 12.8856 1.78106 13.3333 2.33334 13.3333H13.6667C14.219 13.3333 14.6667 12.8856 14.6667 12.3333V3.66667C14.6667 3.11438 14.219 2.66667 13.6667 2.66667ZM14 12.3333C14 12.5174 13.8508 12.6667 13.6667 12.6667H2.33334C2.14925 12.6667 2.00001 12.5174 2.00001 12.3333V3.66667C2.00001 3.48257 2.14925 3.33333 2.33334 3.33333H4.66668V4H5.33334V3.33333H10.6667V4H11.3333V3.33333H13.6667C13.8508 3.33333 14 3.48257 14 3.66667V12.3333ZM13.3333 5.33333H2.66668V6H13.3333V5.33333Z" fill="#0066CC"/>
</svg>
