<svg width="16" height="16" viewBox="0 0 16 16" fill="none" xmlns="http://www.w3.org/2000/svg">
<path fill-rule="evenodd" clip-rule="evenodd" d="M1.33325 7.99967C1.33325 4.31778 4.31802 1.33301 7.99992 1.33301C9.76803 1.33301 11.4637 2.03539 12.714 3.28563C13.9642 4.53587 14.6666 6.23156 14.6666 7.99967C14.6666 11.6816 11.6818 14.6663 7.99992 14.6663C4.31802 14.6663 1.33325 11.6816 1.33325 7.99967ZM1.99992 7.99967C1.99992 11.3134 4.68621 13.9997 7.99992 13.9997C11.3136 13.9997 13.9999 11.3134 13.9999 7.99967C13.9999 4.68597 11.3136 1.99967 7.99992 1.99967C4.68621 1.99967 1.99992 4.68597 1.99992 7.99967ZM7.66658 9.46634V3.79967H8.46659V9.46634H7.66658ZM8.39992 12.1997V10.9997H7.59992V12.1997H8.39992Z" fill="#00A0CC"/>
</svg>
