<svg width="32" height="32" viewBox="0 0 32 32" fill="none" xmlns="http://www.w3.org/2000/svg">
<g clip-path="url(#clip0_201_5504)">
<circle cx="16" cy="16" r="16" fill="#0066CC"/>
<path fill-rule="evenodd" clip-rule="evenodd" d="M16 16.6663C17.4727 16.6663 18.6667 15.4724 18.6667 13.9997V11.9997C18.6667 10.5269 17.4727 9.33301 16 9.33301C14.5272 9.33301 13.3333 10.5269 13.3333 11.9997V13.9997C13.3333 15.4724 14.5272 16.6663 16 16.6663ZM14 11.9997C14 10.8951 14.8954 9.99967 16 9.99967C17.1046 9.99967 18 10.8951 18 11.9997V13.9997C18 15.1042 17.1046 15.9997 16 15.9997C14.8954 15.9997 14 15.1042 14 13.9997V11.9997ZM20.6667 22.6663H21.3333C21.3333 19.7208 18.9455 17.333 16 17.333C13.0545 17.333 10.6667 19.7208 10.6667 22.6663H11.3333C11.3333 20.089 13.4227 17.9997 16 17.9997C18.5773 17.9997 20.6667 20.089 20.6667 22.6663Z" fill="white"/>
</g>
<defs>
<clipPath id="clip0_201_5504">
<rect width="32" height="32" fill="white"/>
</clipPath>
</defs>
</svg>
