<svg width="25" height="24" viewBox="0 0 25 24" fill="none" xmlns="http://www.w3.org/2000/svg">
<path fill-rule="evenodd" clip-rule="evenodd" d="M20.2671 6H12.2671L10.2671 4H4.26709C3.16252 4 2.26709 4.89543 2.26709 6V18C2.26709 19.1046 3.16252 20 4.26709 20H20.2671C21.3717 20 22.2671 19.1046 22.2671 18V8C22.2671 6.89543 21.3717 6 20.2671 6ZM21.2671 18C21.2997 18.2739 21.2048 18.5476 21.0098 18.7427C20.8147 18.9377 20.541 19.0326 20.2671 19H4.26709C3.99317 19.0326 3.71945 18.9377 3.52439 18.7427C3.32934 18.5476 3.23451 18.2739 3.26709 18V6C3.23451 5.72609 3.32934 5.45236 3.52439 5.2573C3.71945 5.06225 3.99317 4.96742 4.26709 5H9.86709L11.5671 6.7L11.8671 7H20.2671C20.541 6.96742 20.8147 7.06225 21.0098 7.2573C21.2048 7.45236 21.2997 7.72609 21.2671 8V18ZM20.2671 9V8H4.26709V9H20.2671Z" fill="#5C6F82"/>
</svg>
