<svg width="16" height="16" viewBox="0 0 16 16" fill="none" xmlns="http://www.w3.org/2000/svg">
<path fill-rule="evenodd" clip-rule="evenodd" d="M1.3333 7.99967C1.3333 4.31778 4.31807 1.33301 7.99996 1.33301C9.76807 1.33301 11.4638 2.03539 12.714 3.28563C13.9643 4.53587 14.6666 6.23156 14.6666 7.99967C14.6666 11.6816 11.6819 14.6663 7.99996 14.6663C4.31807 14.6663 1.3333 11.6816 1.3333 7.99967ZM1.99996 7.99967C1.99996 11.3134 4.68626 13.9997 7.99996 13.9997C11.3137 13.9997 14 11.3134 14 7.99967C14 4.68597 11.3137 1.99967 7.99996 1.99967C4.68626 1.99967 1.99996 4.68597 1.99996 7.99967ZM7.66663 9.46634V3.79967H8.46663V9.46634H7.66663ZM8.39996 12.1997V10.9997H7.59996V12.1997H8.39996Z" fill="#00A0CC"/>
</svg>
