<svg width="25" height="24" viewBox="0 0 25 24" fill="none" xmlns="http://www.w3.org/2000/svg">
<g clip-path="url(#clip0_201_1223455)">
<circle cx="12.5" cy="12" r="12" fill="#0066CC"/>
<path fill-rule="evenodd" clip-rule="evenodd" d="M12.5 12.5C13.6046 12.5 14.5 11.6046 14.5 10.5V9C14.5 7.89543 13.6046 7 12.5 7C11.3954 7 10.5 7.89543 10.5 9V10.5C10.5 11.6046 11.3954 12.5 12.5 12.5ZM11 9C11 8.17157 11.6716 7.5 12.5 7.5C13.3284 7.5 14 8.17157 14 9V10.5C14 11.3284 13.3284 12 12.5 12C11.6716 12 11 11.3284 11 10.5V9ZM16 17H16.5C16.5 14.7909 14.7091 13 12.5 13C10.2909 13 8.5 14.7909 8.5 17H9C9 15.067 10.567 13.5 12.5 13.5C14.433 13.5 16 15.067 16 17Z" fill="white"/>
</g>
<defs>
<clipPath id="clip0_201_1223455">
<rect width="24" height="24" fill="white" transform="translate(0.5)"/>
</clipPath>
</defs>
</svg>
