<svg width="24" height="24" viewBox="0 0 24 24" fill="none" xmlns="http://www.w3.org/2000/svg">
<path fill-rule="evenodd" clip-rule="evenodd" d="M18.4 2.59965C19.1936 2.59965 19.9526 2.92493 20.5 3.49965C21.0803 4.06442 21.4077 4.83984 21.4077 5.64965C21.4077 6.45946 21.0803 7.23488 20.5 7.79965L8.79998 19.3997L3.59998 20.3997L4.59998 15.1997L16.2 3.49965C16.7846 2.91925 17.5762 2.59542 18.4 2.59965ZM15.5 5.59965L14.8 6.29965L17.7 9.19965L18.4 8.49965L15.5 5.59965ZM14.1 7.09965L15.2 8.09965L6.79998 16.4997L5.69998 15.3997L14.1 7.09965ZM5.09998 17.9997C5.33799 17.9911 5.56403 18.1041 5.69998 18.2997C5.89554 18.4356 6.00856 18.6616 5.99998 18.8997L7.49998 18.5997L5.39998 16.4997L5.09998 17.9997ZM8.59998 18.2996L7.49998 17.1996L15.9 8.79965L16.9 9.89965L8.59998 18.2996ZM19.1 7.79965L19.8 7.09965C20.5746 6.28816 20.5746 5.01114 19.8 4.19965C19.4307 3.82282 18.9275 3.60716 18.4 3.59965C17.842 3.60218 17.3058 3.81666 16.9 4.19965L16.2 4.89965L19.1 7.79965Z" fill="#5C6F82"/>
</svg>
