<svg width="25" height="24" viewBox="0 0 25 24" fill="none" xmlns="http://www.w3.org/2000/svg">
<path fill-rule="evenodd" clip-rule="evenodd" d="M20.4224 6H12.4224L10.4224 4H4.42236C3.31779 4 2.42236 4.89543 2.42236 6V18C2.42236 19.1046 3.31779 20 4.42236 20H20.4224C21.5269 20 22.4224 19.1046 22.4224 18V8C22.4224 6.89543 21.5269 6 20.4224 6ZM21.4224 18C21.4549 18.2739 21.3601 18.5476 21.1651 18.7427C20.97 18.9377 20.6963 19.0326 20.4224 19H4.42236C4.14845 19.0326 3.87472 18.9377 3.67967 18.7427C3.48462 18.5476 3.38978 18.2739 3.42236 18V6C3.38978 5.72609 3.48462 5.45236 3.67967 5.2573C3.87472 5.06225 4.14845 4.96742 4.42236 5H10.0224L11.7224 6.7L12.0224 7H20.4224C20.6963 6.96742 20.97 7.06225 21.1651 7.2573C21.3601 7.45236 21.4549 7.72609 21.4224 8V18ZM20.4224 9V8H4.42236V9H20.4224Z" fill="#5C6F82"/>
</svg>
