<svg width="22" height="22" viewBox="0 0 22 22" fill="none" xmlns="http://www.w3.org/2000/svg">
<path d="M20.2959 12.0129C20.1241 11.8032 19.9418 11.6011 19.7818 11.3826C19.4022 10.8619 18.8627 10.5997 18.2786 10.4317C17.3932 10.1769 16.5493 10.2894 15.6907 10.5824C14.4875 10.9925 13.4363 11.6755 12.3106 12.2242C10.4195 13.1452 8.44655 13.2365 6.42718 12.4864C5.65057 12.1983 4.95922 11.7442 4.32213 11.2045C4.21295 11.1116 4.21466 11.0407 4.30903 10.9596C4.7762 10.5575 5.23795 10.1488 5.71533 9.75862C6.08055 9.46004 6.45288 9.16651 6.8451 8.90427C8.50041 7.79811 10.303 7.05445 12.3236 6.86426C12.4583 6.85164 12.5945 6.85234 12.7303 6.8464L12.7275 6.77057C12.4748 6.77104 12.222 6.76193 11.9696 6.77299C10.5558 6.83558 9.21232 7.18 7.93016 7.74588C7.03995 8.13985 6.19163 8.61865 5.39653 9.17588C4.27809 9.95756 3.26221 10.8555 2.311 11.8337C1.85375 12.3038 1.98721 12.2634 1.57692 11.8221C1.17269 11.3881 1.2067 11.479 1.59122 11.1403C2.07764 10.711 2.57528 10.2933 3.09008 9.89844C3.29722 9.73925 3.35878 9.54872 3.3725 9.312C3.4517 7.93246 4.04271 6.77934 4.88035 5.74631C5.51515 4.9493 6.33995 4.3266 7.2827 3.93259C8.22545 3.53857 9.25748 3.38523 10.2887 3.48594C12.3747 3.67209 14.2509 4.46629 15.9499 5.702C17.4965 6.82349 18.7408 8.31752 19.5621 10.0394C19.8377 10.6095 20.0407 11.2127 20.2746 11.8018C20.2957 11.8663 20.3125 11.932 20.325 11.9985L20.2959 12.0129Z" fill="#1F437A"/>
<path d="M17.4575 10.8904C17.5914 10.8933 17.6676 10.8814 17.7371 10.8982C18.3959 11.0589 19.0434 11.2698 19.5208 11.7878C19.7735 12.0671 19.9828 12.3825 20.1413 12.723C20.3556 13.1758 20.1732 13.5063 19.6971 13.6108C19.049 13.7537 18.3916 13.6797 17.6895 13.5771C17.9929 12.6741 18.0079 11.7939 17.4575 10.8904Z" fill="#1F437A"/>
</svg>
