<svg width="33" height="33" viewBox="0 0 33 33" fill="none" xmlns="http://www.w3.org/2000/svg">
<path d="M30.4446 18.0197C30.1869 17.7051 29.9135 17.402 29.6735 17.0742C29.104 16.2931 28.2948 15.8999 27.4186 15.6478C26.0904 15.2656 24.8246 15.4344 23.5366 15.8739C21.7319 16.4891 20.155 17.5136 18.4665 18.3366C15.6297 19.7181 12.6703 19.8551 9.64116 18.73C8.47622 18.2978 7.43918 17.6166 6.48352 16.8071C6.31975 16.6678 6.32231 16.5614 6.46388 16.4397C7.16464 15.8365 7.85728 15.2235 8.57337 14.6382C9.12121 14.1903 9.67971 13.75 10.2681 13.3567C12.7511 11.6974 15.455 10.5819 18.486 10.2966C18.688 10.2777 18.8924 10.2787 19.096 10.2698L19.0919 10.156C18.7127 10.1568 18.3336 10.1431 17.955 10.1597C15.8341 10.2536 13.8189 10.7702 11.8957 11.619C10.5603 12.21 9.28782 12.9282 8.09516 13.7641C6.41745 14.9366 4.89361 16.2836 3.46677 17.7509C2.78089 18.456 2.98108 18.3954 2.36563 17.7334C1.75927 17.0825 1.81029 17.2189 2.38708 16.7108C3.11673 16.0669 3.8632 15.4403 4.63541 14.8479C4.94614 14.6092 5.03847 14.3234 5.05906 13.9683C5.17786 11.8989 6.06438 10.1692 7.32087 8.61962C8.27309 7.42409 9.51031 6.49002 10.9245 5.89899C12.3386 5.30796 13.8867 5.07794 15.4335 5.22901C18.5626 5.50824 21.377 6.69956 23.9255 8.55316C26.2455 10.2354 28.1119 12.4765 29.3438 15.0593C29.7573 15.9146 30.0619 16.8193 30.4126 17.703C30.4443 17.7998 30.4696 17.8983 30.4883 17.9981L30.4446 18.0197Z" fill="#29A380"/>
<path d="M26.1869 16.3356C26.3877 16.3399 26.5021 16.3221 26.6063 16.3473C27.5946 16.5883 28.5659 16.9047 29.282 17.6818C29.661 18.1007 29.975 18.5739 30.2127 19.0845C30.5342 19.7638 30.2606 20.2596 29.5464 20.4163C28.5742 20.6307 27.5881 20.5196 26.5349 20.3658C26.99 19.0112 27.0126 17.6908 26.1869 16.3356Z" fill="#29A380"/>
</svg>
