<svg width="22" height="22" viewBox="0 0 22 22" fill="none" xmlns="http://www.w3.org/2000/svg">
<path d="M20.296 12.0129C20.1242 11.8032 19.942 11.6011 19.7819 11.3826C19.4023 10.8619 18.8628 10.5997 18.2787 10.4317C17.3933 10.1769 16.5494 10.2894 15.6908 10.5824C14.4877 10.9925 13.4364 11.6755 12.3108 12.2242C10.4196 13.1452 8.44667 13.2365 6.4273 12.4864C5.65069 12.1983 4.95934 11.7442 4.32225 11.2045C4.21307 11.1116 4.21478 11.0407 4.30916 10.9596C4.77632 10.5575 5.23807 10.1488 5.71546 9.75862C6.08067 9.46004 6.45301 9.16651 6.84523 8.90427C8.50053 7.79811 10.3031 7.05445 12.3238 6.86426C12.4584 6.85164 12.5946 6.85234 12.7304 6.8464L12.7276 6.77057C12.4749 6.77104 12.2221 6.76193 11.9697 6.77299C10.5559 6.83558 9.21244 7.18 7.93028 7.74588C7.04007 8.13985 6.19175 8.61865 5.39665 9.17588C4.27821 9.95756 3.26233 10.8555 2.31112 11.8337C1.85388 12.3038 1.98734 12.2634 1.57704 11.8221C1.17281 11.3881 1.20682 11.479 1.59134 11.1403C2.07776 10.711 2.5754 10.2933 3.0902 9.89844C3.29735 9.73925 3.3589 9.54872 3.37263 9.312C3.45182 7.93246 4.04283 6.77934 4.88047 5.74631C5.51528 4.9493 6.34007 4.3266 7.28282 3.93259C8.22557 3.53857 9.2576 3.38523 10.2888 3.48594C12.3748 3.67209 14.2511 4.46629 15.95 5.702C17.4967 6.82349 18.7409 8.31752 19.5622 10.0394C19.8378 10.6095 20.0409 11.2127 20.2747 11.8018C20.2958 11.8663 20.3127 11.932 20.3251 11.9985L20.296 12.0129Z" fill="#1F437A"/>
<path d="M17.4576 10.8904C17.5915 10.8933 17.6677 10.8814 17.7372 10.8982C18.396 11.0589 19.0436 11.2698 19.5209 11.7878C19.7737 12.0671 19.983 12.3825 20.1414 12.723C20.3557 13.1758 20.1733 13.5063 19.6972 13.6108C19.0491 13.7537 18.3917 13.6797 17.6896 13.5771C17.993 12.6741 18.0081 11.7939 17.4576 10.8904Z" fill="#1F437A"/>
</svg>
