<svg width="22" height="22" viewBox="0 0 22 22" fill="none" xmlns="http://www.w3.org/2000/svg">
<path d="M20.2961 12.0129C20.1243 11.8032 19.942 11.6011 19.782 11.3826C19.4024 10.8619 18.8629 10.5997 18.2788 10.4317C17.3933 10.1769 16.5495 10.2894 15.6908 10.5824C14.4877 10.9925 13.4364 11.6755 12.3108 12.2242C10.4197 13.1452 8.44674 13.2365 6.42737 12.4864C5.65075 12.1983 4.9594 11.7442 4.32231 11.2045C4.21313 11.1116 4.21484 11.0407 4.30922 10.9596C4.77638 10.5575 5.23813 10.1488 5.71552 9.75862C6.08074 9.46004 6.45307 9.16651 6.84529 8.90427C8.5006 7.79811 10.3032 7.05445 12.3238 6.86426C12.4585 6.85164 12.5947 6.85234 12.7305 6.8464L12.7277 6.77057C12.475 6.77104 12.2222 6.76193 11.9698 6.77299C10.5559 6.83558 9.2125 7.18 7.93034 7.74588C7.04013 8.13985 6.19181 8.61865 5.39671 9.17588C4.27827 9.95756 3.26239 10.8555 2.31118 11.8337C1.85394 12.3038 1.9874 12.2634 1.57711 11.8221C1.17287 11.3881 1.20688 11.479 1.5914 11.1403C2.07782 10.711 2.57546 10.2933 3.09026 9.89844C3.29741 9.73925 3.35896 9.54872 3.37269 9.312C3.45189 7.93246 4.04289 6.77934 4.88053 5.74631C5.51534 4.9493 6.34013 4.3266 7.28288 3.93259C8.22563 3.53857 9.25767 3.38523 10.2889 3.48594C12.3749 3.67209 14.2511 4.46629 15.9501 5.702C17.4967 6.82349 18.741 8.31752 19.5622 10.0394C19.8379 10.6095 20.0409 11.2127 20.2748 11.8018C20.2959 11.8663 20.3127 11.932 20.3252 11.9985L20.2961 12.0129Z" fill="#29A380"/>
<path d="M17.4578 10.8904C17.5917 10.8933 17.6679 10.8814 17.7374 10.8982C18.3962 11.0589 19.0437 11.2698 19.5211 11.7878C19.7738 12.0671 19.9831 12.3825 20.1416 12.723C20.3559 13.1758 20.1735 13.5063 19.6974 13.6108C19.0493 13.7537 18.3919 13.6797 17.6898 13.5771C17.9932 12.6741 18.0082 11.7939 17.4578 10.8904Z" fill="#29A380"/>
</svg>
