<svg width="54" height="41" viewBox="0 0 54 41" fill="none" xmlns="http://www.w3.org/2000/svg">
<path fill-rule="evenodd" clip-rule="evenodd" d="M34.3943 0.5L26.2114 11.3923L34.3943 22.2846V0.5ZM26.8105 40.4387L34.9935 29.5462L26.8105 18.654V40.4387V40.4387Z" fill="url(#paint0_linear_140_6545)"/>
<path fill-rule="evenodd" clip-rule="evenodd" d="M49.1982 29.5465H52.827V15.0233C52.827 13.0181 51.2023 11.3926 49.1982 11.3926H38.3115V29.5465H41.9405V22.4775H49.1982V29.5465ZM41.9405 18.6542H49.1982V15.2161H41.9405V18.6542ZM19.2636 29.5465H22.8924V11.3926H19.2636V29.5465ZM16.2713 29.5465L10.9472 22.4775H11.7172C13.7213 22.4775 15.346 20.852 15.346 18.8468H15.3461L15.346 15.0234C15.346 13.0181 13.7213 11.3926 11.7172 11.3926H0.830566V29.5465H4.45949V22.4775H6.42543H6.41677L11.7274 29.5465H16.2713ZM4.45949 18.6542H11.7172V15.216H4.45949V18.6542Z" fill="white"/>
<defs>
<linearGradient id="paint0_linear_140_6545" x1="34.9935" y1="40.4387" x2="34.9935" y2="0.500095" gradientUnits="userSpaceOnUse">
<stop stop-color="#007399"/>
<stop offset="1" stop-color="#00B3C7"/>
</linearGradient>
</defs>
</svg>
