<svg width="54" height="41" viewBox="0 0 54 41" fill="none" xmlns="http://www.w3.org/2000/svg">
<path fill-rule="evenodd" clip-rule="evenodd" d="M34.394 0.5L26.2112 11.3923L34.394 22.2846V0.5ZM26.8102 40.4387L34.9933 29.5462L26.8102 18.654V40.4387V40.4387Z" fill="url(#paint0_linear_168_9153)"/>
<path fill-rule="evenodd" clip-rule="evenodd" d="M49.1985 29.5465H52.8273V15.0233C52.8273 13.0181 51.2025 11.3926 49.1985 11.3926H38.3118V29.5465H41.9408V22.4775H49.1985V29.5465ZM41.9408 18.6542H49.1985V15.2161H41.9408V18.6542ZM19.2639 29.5465H22.8927V11.3926H19.2639V29.5465ZM16.2715 29.5465L10.9475 22.4775H11.7174C13.7215 22.4775 15.3462 20.852 15.3462 18.8468H15.3463L15.3462 15.0234C15.3462 13.0181 13.7215 11.3926 11.7174 11.3926H0.830811V29.5465H4.45974V22.4775H6.42568H6.41701L11.7276 29.5465H16.2715ZM4.45974 18.6542H11.7174V15.216H4.45974V18.6542Z" fill="white"/>
<defs>
<linearGradient id="paint0_linear_168_9153" x1="34.9932" y1="40.4387" x2="34.9932" y2="0.500095" gradientUnits="userSpaceOnUse">
<stop stop-color="#007399"/>
<stop offset="1" stop-color="#00B3C7"/>
</linearGradient>
</defs>
</svg>
