<svg width="54" height="41" viewBox="0 0 54 41" fill="none" xmlns="http://www.w3.org/2000/svg">
<path fill-rule="evenodd" clip-rule="evenodd" d="M34.3941 0.5L26.2112 11.3923L34.3941 22.2846V0.5ZM26.8103 40.4387L34.9933 29.5462L26.8103 18.654V40.4387V40.4387Z" fill="url(#paint0_linear_170_10525)"/>
<path fill-rule="evenodd" clip-rule="evenodd" d="M49.1984 29.5465H52.8272V15.0233C52.8272 13.0181 51.2025 11.3926 49.1984 11.3926H38.3117V29.5465H41.9407V22.4775H49.1984V29.5465ZM41.9407 18.6542H49.1984V15.2161H41.9407V18.6542ZM19.2638 29.5465H22.8926V11.3926H19.2638V29.5465ZM16.2715 29.5465L10.9474 22.4775H11.7173C13.7215 22.4775 15.3462 20.852 15.3462 18.8468H15.3463L15.3462 15.0234C15.3462 13.0181 13.7215 11.3926 11.7173 11.3926H0.83075V29.5465H4.45967V22.4775H6.42562H6.41695L11.7276 29.5465H16.2715ZM4.45967 18.6542H11.7173V15.216H4.45967V18.6542Z" fill="white"/>
<defs>
<linearGradient id="paint0_linear_170_10525" x1="34.9933" y1="40.4387" x2="34.9933" y2="0.500095" gradientUnits="userSpaceOnUse">
<stop stop-color="#007399"/>
<stop offset="1" stop-color="#00B3C7"/>
</linearGradient>
</defs>
</svg>
