<svg width="8" height="220" viewBox="0 0 8 220" fill="none" xmlns="http://www.w3.org/2000/svg">
<path fill-rule="evenodd" clip-rule="evenodd" d="M0 4C0 1.79086 1.79086 0 4 0V0C6.20914 0 8 1.79086 8 4V216C8 218.209 6.20914 220 4 220V220C1.79086 220 0 218.209 0 216V4Z" fill="#5C8DD6" fill-opacity="0.26"/>
<path opacity="0.5" fill-rule="evenodd" clip-rule="evenodd" d="M0 4C0 1.79086 1.79086 0 4 0V0C6.20914 0 8 1.79086 8 4V106C8 108.209 6.20914 110 4 110V110C1.79086 110 0 108.209 0 106V4Z" fill="#5C8DD6"/>
</svg>
