<svg width="29" height="22" viewBox="0 0 29 22" fill="none" xmlns="http://www.w3.org/2000/svg">
<path d="M27.5953 19.4792V11.6875H1.40469V19.4792C1.40469 19.7542 1.51797 20.0063 1.74453 20.2354C1.97109 20.4646 2.22031 20.5792 2.49219 20.5792H26.5078C26.7797 20.5792 27.0289 20.4646 27.2555 20.2354C27.482 20.0063 27.5953 19.7542 27.5953 19.4792ZM27.5953 10.3125V2.52083C27.5953 2.24583 27.482 1.99375 27.2555 1.76458C27.0289 1.53542 26.7797 1.42083 26.5078 1.42083H2.49219C2.22031 1.42083 1.97109 1.53542 1.74453 1.76458C1.51797 1.99375 1.40469 2.24583 1.40469 2.52083V10.3125H27.5953ZM2.49219 22C1.7974 22 1.20833 21.7556 0.725 21.2667C0.241667 20.7778 0 20.1819 0 19.4792V2.52083C0 1.81806 0.241667 1.22222 0.725 0.733334C1.20833 0.244445 1.7974 0 2.49219 0H26.5078C27.2026 0 27.7917 0.244445 28.275 0.733334C28.7583 1.22222 29 1.81806 29 2.52083V19.4792C29 20.1819 28.7583 20.7778 28.275 21.2667C27.7917 21.7556 27.2026 22 26.5078 22H2.49219Z" fill="#00A0CC"/>
</svg>
