<svg width="15" height="10" viewBox="0 0 15 10" fill="none" xmlns="http://www.w3.org/2000/svg">
<path d="M7.48207 9.39168C7.31336 9.39168 7.15519 9.36004 7.00757 9.29678C6.85994 9.23351 6.72286 9.13861 6.59633 9.01207L0.332842 2.74859C0.100861 2.51661 -0.00985689 2.22136 0.000687689 1.86284C0.0112323 1.50433 0.132495 1.20908 0.364476 0.977095C0.638635 0.702935 0.939157 0.581673 1.26604 0.613307C1.59292 0.644941 1.8829 0.776748 2.13597 1.00873L7.48207 6.35483L12.8282 1.00873C13.0602 0.776748 13.3607 0.650213 13.7297 0.629124C14.0988 0.608035 14.3993 0.73457 14.6313 1.00873C14.9055 1.24071 15.0267 1.53069 14.9951 1.87866C14.9635 2.22663 14.8317 2.52715 14.5997 2.78022L8.36782 9.01207C8.24128 9.13861 8.1042 9.23351 7.95658 9.29678C7.80896 9.36004 7.65079 9.39168 7.48207 9.39168Z" fill="white"/>
</svg>
