<svg width="20" height="26" viewBox="0 0 20 26" fill="none" xmlns="http://www.w3.org/2000/svg">
<path d="M1.1611 21.5046C0.832124 21.5046 0.556362 21.3934 0.333817 21.1708C0.111272 20.9483 0 20.6725 0 20.3435C0 20.0146 0.111272 19.7436 0.333817 19.5308C0.556362 19.3179 0.832124 19.2115 1.1611 19.2115H2.58345V10.7644C2.58345 9.08085 3.08176 7.54722 4.07837 6.16357C5.07499 4.77993 6.40542 3.90426 8.06967 3.53658V2.78186C8.06967 2.25937 8.25834 1.82395 8.6357 1.47562C9.01306 1.12729 9.46299 0.953125 9.98549 0.953125C10.508 0.953125 10.9579 1.12729 11.3353 1.47562C11.7126 1.82395 11.9013 2.25937 11.9013 2.78186V3.53658C13.5656 3.90426 14.9057 4.77993 15.9216 6.16357C16.9376 7.54722 17.4456 9.08085 17.4456 10.7644V19.2115H18.8389C19.1485 19.2115 19.4194 19.3227 19.6517 19.5453C19.8839 19.7678 20 20.0436 20 20.3726C20 20.7016 19.8839 20.9725 19.6517 21.1853C19.4194 21.3982 19.1485 21.5046 18.8389 21.5046H1.1611ZM9.98549 25.046C9.32753 25.046 8.75181 24.8041 8.25834 24.3203C7.76488 23.8365 7.51814 23.2657 7.51814 22.6077H12.4528C12.4528 23.285 12.2109 23.8607 11.7271 24.3348C11.2433 24.809 10.6628 25.046 9.98549 25.046ZM4.87663 19.2115H15.1234V10.7644C15.1234 9.31307 14.6347 8.08907 13.6575 7.09246C12.6802 6.09584 11.4756 5.59754 10.0435 5.59754C8.59216 5.59754 7.36817 6.09584 6.37155 7.09246C5.37494 8.08907 4.87663 9.31307 4.87663 10.7644V19.2115Z" fill="white"/>
</svg>
