<svg width="24" height="24" viewBox="0 0 24 24" fill="none" xmlns="http://www.w3.org/2000/svg">
<path d="M21.6986 23.6049L13.874 15.8025C13.2384 16.3292 12.4822 16.7462 11.6055 17.0535C10.7288 17.3608 9.79726 17.5144 8.81096 17.5144C6.33425 17.5144 4.24658 16.6584 2.54795 14.9465C0.849315 13.2346 0 11.1715 0 8.7572C0 6.34294 0.854795 4.27984 2.56438 2.5679C4.27397 0.855967 6.33425 0 8.7452 0C11.1781 0 13.2384 0.855967 14.926 2.5679C16.6137 4.27984 17.4575 6.34294 17.4575 8.7572C17.4575 9.72291 17.3151 10.6337 17.0301 11.4897C16.7452 12.3457 16.3178 13.1578 15.7479 13.9259L23.6055 21.7284C23.8685 21.9918 24 22.3045 24 22.6667C24 23.0288 23.8575 23.3416 23.5726 23.6049C23.3096 23.8683 22.9918 24 22.6192 24C22.2466 24 21.9397 23.8683 21.6986 23.6049ZM8.77808 14.8807C10.4658 14.8807 11.9014 14.2826 13.0849 13.0864C14.2685 11.8903 14.8603 10.4472 14.8603 8.7572C14.8603 7.06722 14.2685 5.62414 13.0849 4.42798C11.9014 3.23182 10.4658 2.63374 8.77808 2.63374C7.04658 2.63374 5.58356 3.23182 4.38904 4.42798C3.19452 5.62414 2.59726 7.06722 2.59726 8.7572C2.59726 10.4472 3.19452 11.8903 4.38904 13.0864C5.58356 14.2826 7.04658 14.8807 8.77808 14.8807Z" fill="white"/>
</svg>
